<svg xmlns="http://www.w3.org/2000/svg" xmlns:xlink="http://www.w3.org/1999/xlink" width="500" zoomAndPan="magnify" viewBox="0 0 375 374.999991" height="500" preserveAspectRatio="xMidYMid meet" version="1.0"><defs><g/><clipPath id="id1"><path d="M 21 65 L 365.25 65 L 365.25 310.246094 L 21 310.246094 Z M 21 65 " clip-rule="nonzero"/></clipPath><clipPath id="id2"><path d="M 38.253906 65 L 347.996094 65 C 352.570312 65 356.960938 66.820312 360.195312 70.054688 C 363.433594 73.292969 365.25 77.6875 365.25 82.265625 L 365.25 292.976562 C 365.25 297.558594 363.433594 301.949219 360.195312 305.1875 C 356.960938 308.425781 352.570312 310.246094 347.996094 310.246094 L 38.253906 310.246094 C 33.679688 310.246094 29.289062 308.425781 26.054688 305.1875 C 22.816406 301.949219 21 297.558594 21 292.976562 L 21 82.265625 C 21 77.6875 22.816406 73.292969 26.054688 70.054688 C 29.289062 66.820312 33.679688 65 38.253906 65 " clip-rule="nonzero"/></clipPath><clipPath id="id3"><path d="M 21 65 L 190.5 65 L 190.5 310.246094 L 21 310.246094 Z M 21 65 " clip-rule="nonzero"/></clipPath></defs><g clip-path="url(#id1)"><g clip-path="url(#id2)"><path stroke-linecap="butt" transform="matrix(0.75023, 0, 0, 0.750753, 21.000003, 64.999265)" fill="none" stroke-linejoin="miter" d="M 22.998155 0.000978575 L 435.861199 0.000978575 C 441.958288 0.000978575 447.810661 2.425627 452.12184 6.7338 C 456.438225 11.047176 458.859358 16.900672 458.859358 22.998714 L 458.859358 303.664744 C 458.859358 309.767989 456.438225 315.616282 452.12184 319.929658 C 447.810661 324.243034 441.958288 326.667682 435.861199 326.667682 L 22.998155 326.667682 C 16.901066 326.667682 11.048693 324.243034 6.737514 319.929658 C 2.421129 315.616282 -0.00000416006 309.767989 -0.00000416006 303.664744 L -0.00000416006 22.998714 C -0.00000416006 16.900672 2.421129 11.047176 6.737514 6.7338 C 11.048693 2.425627 16.901066 0.000978575 22.998155 0.000978575 " stroke="#000000" stroke-width="18" stroke-opacity="1" stroke-miterlimit="4"/></g></g><g clip-path="url(#id3)"><path fill="#000000" d="M 38.238281 65.003906 L 173.261719 65.003906 C 182.78125 65.003906 190.5 72.734375 190.5 82.269531 L 190.5 292.972656 C 190.5 302.507812 182.78125 310.238281 173.261719 310.238281 L 38.238281 310.238281 C 28.71875 310.238281 21 302.507812 21 292.972656 L 21 82.269531 C 21 72.734375 28.71875 65.003906 38.238281 65.003906 " fill-opacity="1" fill-rule="nonzero"/></g><g fill="#ffffff" fill-opacity="1"><g transform="translate(35.449221, 275.152606)"><g><path d="M 19.953125 -151.78125 L 85.859375 -151.78125 C 101.617188 -151.78125 114.050781 -148.414062 123.15625 -141.6875 C 132.257812 -134.96875 136.8125 -125.679688 136.8125 -113.828125 C 136.8125 -105.304688 134.425781 -98.046875 129.65625 -92.046875 C 124.894531 -86.046875 118.394531 -82.035156 110.15625 -80.015625 C 120.269531 -78.273438 128.21875 -74.007812 134 -67.21875 C 139.78125 -60.425781 142.671875 -51.894531 142.671875 -41.625 C 142.671875 -28.613281 137.753906 -18.421875 127.921875 -11.046875 C 118.097656 -3.679688 104.582031 0 87.375 0 L 19.953125 0 Z M 45.53125 -129.015625 L 45.53125 -88.90625 L 84.5625 -88.90625 C 92.65625 -88.90625 99.015625 -90.707031 103.640625 -94.3125 C 108.265625 -97.925781 110.578125 -102.914062 110.578125 -109.28125 C 110.578125 -115.644531 108.300781 -120.523438 103.75 -123.921875 C 99.195312 -127.316406 92.800781 -129.015625 84.5625 -129.015625 Z M 45.53125 -66.34375 L 45.53125 -22.765625 L 84.5625 -22.765625 C 94.675781 -22.765625 102.515625 -24.679688 108.078125 -28.515625 C 113.648438 -32.347656 116.4375 -37.804688 116.4375 -44.890625 C 116.4375 -51.535156 113.617188 -56.769531 107.984375 -60.59375 C 102.347656 -64.425781 94.539062 -66.34375 84.5625 -66.34375 Z M 45.53125 -66.34375 "/></g></g></g><g fill="#000000" fill-opacity="1"><g transform="translate(188.519523, 275.152606)"><g><path d="M 87.171875 -152.4375 C 97.859375 -152.4375 108.296875 -150.375 118.484375 -146.25 C 128.679688 -142.132812 137.46875 -136.390625 144.84375 -129.015625 L 129.875 -110.359375 C 124.382812 -116.285156 117.878906 -120.984375 110.359375 -124.453125 C 102.847656 -127.921875 95.257812 -129.65625 87.59375 -129.65625 C 72.414062 -129.65625 59.585938 -124.488281 49.109375 -114.15625 C 38.628906 -103.820312 33.390625 -91.210938 33.390625 -76.328125 C 33.390625 -61.285156 38.628906 -48.597656 49.109375 -38.265625 C 59.585938 -27.929688 72.414062 -22.765625 87.59375 -22.765625 C 103.351562 -22.765625 117.445312 -28.765625 129.875 -40.765625 L 145.0625 -23.84375 C 137.25 -16.1875 128.140625 -10.117188 117.734375 -5.640625 C 107.328125 -1.160156 96.847656 1.078125 86.296875 1.078125 C 64.035156 1.078125 45.316406 -6.328125 30.140625 -21.140625 C 14.960938 -35.953125 7.375 -54.273438 7.375 -76.109375 C 7.375 -97.640625 15.070312 -115.742188 30.46875 -130.421875 C 45.863281 -145.097656 64.765625 -152.4375 87.171875 -152.4375 Z M 87.171875 -152.4375 "/></g></g></g></svg>